<mxfile host="Electron" modified="2023-09-18T07:03:07.884Z" agent="Mozilla/5.0 (Windows NT 10.0; Win64; x64) AppleWebKit/537.36 (KHTML, like Gecko) draw.io/21.7.5 Chrome/114.0.5735.289 Electron/25.8.1 Safari/537.36" etag="J3UoEQfVUvfuJH_sA2rT" version="21.7.5" type="device">
  <diagram name="Страница 1" id="peiVjQ6xKM0UFsxWsOr3">
    <mxGraphModel dx="1036" dy="1790" grid="1" gridSize="10" guides="1" tooltips="1" connect="1" arrows="1" fold="1" page="1" pageScale="1" pageWidth="827" pageHeight="1169" math="0" shadow="0">
      <root>
        <mxCell id="0" />
        <mxCell id="1" parent="0" />
        <mxCell id="1JTkHmqc5n5id6cBLUgi-10" style="edgeStyle=orthogonalEdgeStyle;rounded=0;orthogonalLoop=1;jettySize=auto;html=1;exitX=0.5;exitY=1;exitDx=0;exitDy=0;entryX=0.5;entryY=0;entryDx=0;entryDy=0;" parent="1" edge="1">
          <mxGeometry relative="1" as="geometry">
            <mxPoint x="470" y="395" as="sourcePoint" />
          </mxGeometry>
        </mxCell>
        <mxCell id="UrdU0xNyHuRj9MzuBO23-1" value="Спортсмен" style="shape=umlActor;verticalLabelPosition=bottom;verticalAlign=top;html=1;outlineConnect=0;" parent="1" vertex="1">
          <mxGeometry x="150" y="185" width="30" height="65" as="geometry" />
        </mxCell>
        <mxCell id="UrdU0xNyHuRj9MzuBO23-8" value="" style="rounded=0;whiteSpace=wrap;html=1;" parent="1" vertex="1">
          <mxGeometry x="221" y="65" width="385" height="445" as="geometry" />
        </mxCell>
        <mxCell id="Ndh7fXzvTLHAovszqeuX-16" style="edgeStyle=orthogonalEdgeStyle;rounded=0;orthogonalLoop=1;jettySize=auto;html=1;exitX=0;exitY=0.5;exitDx=0;exitDy=0;entryX=0.5;entryY=0;entryDx=0;entryDy=0;entryPerimeter=0;" parent="1" source="UrdU0xNyHuRj9MzuBO23-2" target="UrdU0xNyHuRj9MzuBO23-1" edge="1">
          <mxGeometry relative="1" as="geometry">
            <Array as="points">
              <mxPoint x="210" y="105" />
              <mxPoint x="210" y="140" />
              <mxPoint x="165" y="140" />
            </Array>
          </mxGeometry>
        </mxCell>
        <mxCell id="UrdU0xNyHuRj9MzuBO23-2" value="Отримати список&lt;br&gt;товарів" style="ellipse;whiteSpace=wrap;html=1;" parent="1" vertex="1">
          <mxGeometry x="250" y="80" width="140" height="50" as="geometry" />
        </mxCell>
        <mxCell id="UrdU0xNyHuRj9MzuBO23-3" value="Створити замовлення" style="ellipse;whiteSpace=wrap;html=1;" parent="1" vertex="1">
          <mxGeometry x="250" y="150" width="140" height="50" as="geometry" />
        </mxCell>
        <mxCell id="UrdU0xNyHuRj9MzuBO23-4" value="Об&#39;єднати замовлення" style="ellipse;whiteSpace=wrap;html=1;" parent="1" vertex="1">
          <mxGeometry x="250" y="260" width="140" height="50" as="geometry" />
        </mxCell>
        <mxCell id="UrdU0xNyHuRj9MzuBO23-5" value="Оплатити замовлення" style="ellipse;whiteSpace=wrap;html=1;" parent="1" vertex="1">
          <mxGeometry x="250" y="340" width="140" height="50" as="geometry" />
        </mxCell>
        <mxCell id="UrdU0xNyHuRj9MzuBO23-6" value="Сповістити про&lt;br&gt;успішність замовлення" style="ellipse;whiteSpace=wrap;html=1;" parent="1" vertex="1">
          <mxGeometry x="430" y="425" width="160" height="50" as="geometry" />
        </mxCell>
        <mxCell id="UrdU0xNyHuRj9MzuBO23-15" value="Сервіс E-pay&lt;br&gt;&amp;nbsp;" style="shape=umlActor;verticalLabelPosition=bottom;verticalAlign=top;html=1;outlineConnect=0;" parent="1" vertex="1">
          <mxGeometry x="140" y="420" width="30" height="60" as="geometry" />
        </mxCell>
        <mxCell id="Ndh7fXzvTLHAovszqeuX-8" style="edgeStyle=orthogonalEdgeStyle;rounded=0;orthogonalLoop=1;jettySize=auto;html=1;exitX=0.5;exitY=0.5;exitDx=0;exitDy=0;exitPerimeter=0;entryX=1;entryY=0.5;entryDx=0;entryDy=0;" parent="1" source="UrdU0xNyHuRj9MzuBO23-18" target="UrdU0xNyHuRj9MzuBO23-6" edge="1">
          <mxGeometry relative="1" as="geometry">
            <Array as="points">
              <mxPoint x="640" y="420" />
              <mxPoint x="640" y="450" />
            </Array>
          </mxGeometry>
        </mxCell>
        <mxCell id="UrdU0xNyHuRj9MzuBO23-18" value="Оператор" style="shape=umlActor;verticalLabelPosition=bottom;verticalAlign=top;html=1;outlineConnect=0;" parent="1" vertex="1">
          <mxGeometry x="680" y="390" width="30" height="60" as="geometry" />
        </mxCell>
        <mxCell id="Ndh7fXzvTLHAovszqeuX-3" value="Авторизувати&lt;br&gt;користувача" style="ellipse;whiteSpace=wrap;html=1;" parent="1" vertex="1">
          <mxGeometry x="420" y="190" width="140" height="50" as="geometry" />
        </mxCell>
        <mxCell id="Ndh7fXzvTLHAovszqeuX-5" value="E-pay сплата" style="ellipse;whiteSpace=wrap;html=1;" parent="1" vertex="1">
          <mxGeometry x="250" y="425" width="140" height="50" as="geometry" />
        </mxCell>
        <mxCell id="Ndh7fXzvTLHAovszqeuX-7" value="&amp;lt;&amp;lt;extend&amp;gt;&amp;gt;" style="endArrow=block;endSize=16;endFill=0;html=1;rounded=0;exitX=0.5;exitY=0;exitDx=0;exitDy=0;entryX=0.5;entryY=1;entryDx=0;entryDy=0;dashed=1;" parent="1" source="Ndh7fXzvTLHAovszqeuX-5" target="UrdU0xNyHuRj9MzuBO23-5" edge="1">
          <mxGeometry x="-0.1429" y="-40" width="160" relative="1" as="geometry">
            <mxPoint x="330" y="280" as="sourcePoint" />
            <mxPoint x="490" y="280" as="targetPoint" />
            <mxPoint as="offset" />
          </mxGeometry>
        </mxCell>
        <mxCell id="Ndh7fXzvTLHAovszqeuX-10" value="" style="endArrow=none;html=1;rounded=0;entryX=0;entryY=0.5;entryDx=0;entryDy=0;" parent="1" source="UrdU0xNyHuRj9MzuBO23-15" target="Ndh7fXzvTLHAovszqeuX-5" edge="1">
          <mxGeometry width="50" height="50" relative="1" as="geometry">
            <mxPoint x="390" y="310" as="sourcePoint" />
            <mxPoint x="190" y="420" as="targetPoint" />
          </mxGeometry>
        </mxCell>
        <mxCell id="Ndh7fXzvTLHAovszqeuX-11" value="&amp;lt;&amp;lt;include&amp;gt;&amp;gt;" style="endArrow=block;endSize=16;endFill=0;html=1;rounded=0;exitX=1;exitY=0.5;exitDx=0;exitDy=0;entryX=0;entryY=0.5;entryDx=0;entryDy=0;dashed=1;" parent="1" source="UrdU0xNyHuRj9MzuBO23-3" target="Ndh7fXzvTLHAovszqeuX-3" edge="1">
          <mxGeometry x="-0.12" y="21" width="160" relative="1" as="geometry">
            <mxPoint x="450" y="350" as="sourcePoint" />
            <mxPoint x="400" y="375" as="targetPoint" />
            <mxPoint as="offset" />
          </mxGeometry>
        </mxCell>
        <mxCell id="Ndh7fXzvTLHAovszqeuX-12" value="&amp;lt;&amp;lt;include&amp;gt;&amp;gt;" style="endArrow=block;endSize=16;endFill=0;html=1;rounded=0;exitX=1;exitY=0.5;exitDx=0;exitDy=0;entryX=0.5;entryY=0;entryDx=0;entryDy=0;dashed=1;" parent="1" source="UrdU0xNyHuRj9MzuBO23-2" target="Ndh7fXzvTLHAovszqeuX-3" edge="1">
          <mxGeometry x="-0.12" y="21" width="160" relative="1" as="geometry">
            <mxPoint x="400" y="185" as="sourcePoint" />
            <mxPoint x="430" y="225" as="targetPoint" />
            <mxPoint as="offset" />
          </mxGeometry>
        </mxCell>
        <mxCell id="Ndh7fXzvTLHAovszqeuX-13" value="" style="endArrow=none;html=1;rounded=0;entryX=0;entryY=0.5;entryDx=0;entryDy=0;" parent="1" source="UrdU0xNyHuRj9MzuBO23-1" target="Ndh7fXzvTLHAovszqeuX-3" edge="1">
          <mxGeometry width="50" height="50" relative="1" as="geometry">
            <mxPoint x="390" y="350" as="sourcePoint" />
            <mxPoint x="440" y="300" as="targetPoint" />
          </mxGeometry>
        </mxCell>
        <mxCell id="Ndh7fXzvTLHAovszqeuX-14" value="&amp;lt;&amp;lt;include&amp;gt;&amp;gt;" style="endArrow=block;endSize=16;endFill=0;html=1;rounded=0;exitX=1;exitY=0;exitDx=0;exitDy=0;entryX=0;entryY=0.5;entryDx=0;entryDy=0;dashed=1;" parent="1" source="UrdU0xNyHuRj9MzuBO23-4" edge="1">
          <mxGeometry x="-0.12" y="21" width="160" relative="1" as="geometry">
            <mxPoint x="400" y="185" as="sourcePoint" />
            <mxPoint x="430" y="225" as="targetPoint" />
            <mxPoint as="offset" />
          </mxGeometry>
        </mxCell>
        <mxCell id="Ndh7fXzvTLHAovszqeuX-15" value="&amp;lt;&amp;lt;include&amp;gt;&amp;gt;" style="endArrow=block;endSize=16;endFill=0;html=1;rounded=0;exitX=1;exitY=0;exitDx=0;exitDy=0;entryX=0.5;entryY=1;entryDx=0;entryDy=0;dashed=1;" parent="1" source="UrdU0xNyHuRj9MzuBO23-5" target="Ndh7fXzvTLHAovszqeuX-3" edge="1">
          <mxGeometry x="0.5777" y="-23" width="160" relative="1" as="geometry">
            <mxPoint x="379" y="277" as="sourcePoint" />
            <mxPoint x="440" y="235" as="targetPoint" />
            <mxPoint as="offset" />
          </mxGeometry>
        </mxCell>
        <mxCell id="Ndh7fXzvTLHAovszqeuX-18" value="&amp;lt;&amp;lt;include&amp;gt;&amp;gt;" style="endArrow=block;endSize=16;endFill=0;html=1;rounded=0;exitX=0.5;exitY=0;exitDx=0;exitDy=0;entryX=1;entryY=1;entryDx=0;entryDy=0;dashed=1;" parent="1" source="UrdU0xNyHuRj9MzuBO23-6" target="Ndh7fXzvTLHAovszqeuX-3" edge="1">
          <mxGeometry x="0.3479" y="-30" width="160" relative="1" as="geometry">
            <mxPoint x="379" y="357" as="sourcePoint" />
            <mxPoint x="500" y="250" as="targetPoint" />
            <mxPoint as="offset" />
          </mxGeometry>
        </mxCell>
        <mxCell id="Ndh7fXzvTLHAovszqeuX-19" value="&lt;br&gt;" style="endArrow=block;endSize=16;endFill=0;html=1;rounded=0;" parent="1" source="UrdU0xNyHuRj9MzuBO23-18" target="UrdU0xNyHuRj9MzuBO23-1" edge="1">
          <mxGeometry x="0.3479" y="-30" width="160" relative="1" as="geometry">
            <mxPoint x="520" y="435" as="sourcePoint" />
            <mxPoint x="549" y="243" as="targetPoint" />
            <mxPoint as="offset" />
            <Array as="points">
              <mxPoint x="650" y="30" />
              <mxPoint x="600" y="30" />
              <mxPoint x="530" y="30" />
              <mxPoint x="390" y="30" />
              <mxPoint x="230" y="30" />
              <mxPoint x="60" y="40" />
              <mxPoint x="50" y="215" />
            </Array>
          </mxGeometry>
        </mxCell>
      </root>
    </mxGraphModel>
  </diagram>
</mxfile>
